# Blender v2.78 (sub 0) OBJ File: 'bench2.blend'
# www.blender.org
o Cube.007
v -6.285787 -0.000001 -1.319000
v -5.686273 -0.000001 -1.343148
v -5.623490 -0.000001 0.215588
v -6.223004 -0.000001 0.239736
v -6.285786 2.199999 -1.319001
v -5.686272 2.199999 -1.343148
v -5.623490 2.199999 0.215589
v -6.223003 2.199999 0.239735
v -5.626629 2.127552 0.137652
v -5.683133 2.127552 -1.265211
v -5.626629 0.072446 0.137652
v -5.683134 0.072446 -1.265211
v -6.182728 0.072446 -1.245088
v -6.126224 0.072447 0.157774
v -6.182728 2.127552 -1.245088
v -6.126224 2.127552 0.157775
v -6.126224 0.472447 0.157774
v -6.182728 0.472446 -1.245088
v -5.683133 0.472446 -1.265211
v -5.626629 0.472447 0.137652
v -5.626629 0.527006 0.137652
v -5.683133 0.527006 -1.265211
v -6.182728 0.527006 -1.245088
v -6.126224 0.527006 0.157774
v -6.126224 1.084151 0.157774
v -6.182728 1.084151 -1.245088
v -5.683133 1.084151 -1.265211
v -5.626629 1.084151 0.137652
v -5.626629 1.029591 0.137652
v -5.683133 1.029591 -1.265211
v -6.182728 1.029591 -1.245088
v -6.126224 1.029591 0.157774
v -6.126224 1.572446 0.157774
v -6.182728 1.572446 -1.245088
v -5.683133 1.572446 -1.265211
v -5.626629 1.572446 0.137651
v -5.626629 1.627006 0.137651
v -5.683133 1.627006 -1.265211
v -6.182728 1.627006 -1.245088
v -6.126224 1.627006 0.157774
vt 0.7862 0.6600
vt 0.2142 0.4400
vt 0.7862 0.4400
vt 0.1530 0.7088
vt 0.7146 0.4928
vt 0.7146 0.7088
vt 0.0448 0.5887
vt 0.7598 0.7837
vt 0.0448 0.7837
vt 0.7210 0.3807
vt 0.0060 0.5757
vt 0.0060 0.3807
vt 0.1160 0.8577
vt 0.9154 0.2908
vt 0.9154 0.8577
vt 0.1041 0.4735
vt 0.7788 0.3770
vt 0.8685 0.4735
vt 0.8614 0.5072
vt 0.1867 0.6037
vt 0.0970 0.5072
vt 0.1963 0.7906
vt 0.8144 0.6956
vt 0.9012 0.7906
vt 0.8860 0.8204
vt 0.2679 0.9154
vt 0.1812 0.8204
vt 0.8603 0.3581
vt 0.1396 0.6148
vt 0.1396 0.3581
vt 0.2743 0.9589
vt 0.0000 0.8613
vt 0.2743 0.8613
vt 0.0055 0.6236
vt 0.7036 0.7935
vt 0.0055 0.7935
vt 0.0704 0.8170
vt 0.8322 0.6316
vt 0.8322 0.8170
vt 0.9694 0.1633
vt 0.0547 0.8364
vt 0.0547 0.1633
vt 0.6920 0.6649
vt 0.9663 0.7626
vt 0.6920 0.7626
vt 0.2602 0.7346
vt 0.0020 0.7686
vt 0.0000 0.7346
vt 0.2229 0.6065
vt 0.8348 0.3886
vt 0.8348 0.6065
vt 0.1993 0.8454
vt 0.9246 0.5871
vt 0.9246 0.8454
vt 0.6920 0.6700
vt 0.4298 0.6360
vt 0.6900 0.6360
vt 0.6920 0.7626
vt 0.9663 0.8603
vt 0.6920 0.8603
vt 0.6920 0.8603
vt 0.9663 0.9580
vt 0.6920 0.9580
vt 0.6920 0.7966
vt 0.4298 0.7626
vt 0.6900 0.7626
vt 0.3646 0.9132
vt 0.7593 0.7727
vt 0.7593 0.9132
vt 0.2142 0.6600
vt 0.1530 0.4928
vt 0.7598 0.5887
vt 0.7210 0.5757
vt 0.1160 0.2908
vt 0.1210 0.3844
vt 0.8446 0.5963
vt 0.2365 0.7031
vt 0.8459 0.9079
vt 0.8603 0.6148
vt 0.0000 0.9589
vt 0.7036 0.6236
vt 0.0704 0.6316
vt 0.9694 0.8364
vt 0.9663 0.6649
vt 0.2622 0.7686
vt 0.2229 0.3886
vt 0.1993 0.5871
vt 0.4319 0.6700
vt 0.9663 0.7626
vt 0.9663 0.8603
vt 0.4319 0.7966
vt 0.3646 0.7727
vn -0.0000 -1.0000 0.0000
vn 0.0000 1.0000 -0.0000
vn -0.0402 0.0000 -0.9992
vn 0.0402 -0.0000 0.9992
vn -0.9992 0.0000 0.0402
vn 0.9992 0.0000 -0.0402
s off
f 2/1/1 4/2/1 1/3/1
f 8/4/2 6/5/2 5/6/2
f 1/7/3 6/8/3 2/9/3
f 7/10/4 4/11/4 3/12/4
f 1/13/5 8/14/5 5/15/5
f 3/16/6 9/17/6 7/18/6
f 6/19/6 12/20/6 2/21/6
f 7/22/6 10/23/6 6/24/6
f 2/25/6 11/26/6 3/27/6
f 12/28/2 14/29/2 11/30/2
f 10/31/1 16/32/1 15/33/1
f 12/34/4 15/35/4 13/36/4
f 11/37/3 16/38/3 9/39/3
f 15/40/6 14/41/6 13/42/6
f 17/43/1 19/44/1 20/45/1
f 19/46/6 21/47/6 20/48/6
f 24/49/2 22/50/2 23/51/2
f 25/52/2 27/53/2 26/54/2
f 27/55/6 29/56/6 30/57/6
f 32/58/1 30/59/1 29/60/1
f 33/61/1 35/62/1 36/63/1
f 38/64/6 36/65/6 35/66/6
f 40/67/2 38/68/2 39/69/2
f 2/1/1 3/70/1 4/2/1
f 8/4/2 7/71/2 6/5/2
f 1/7/3 5/72/3 6/8/3
f 7/10/4 8/73/4 4/11/4
f 1/13/5 4/74/5 8/14/5
f 3/16/6 11/75/6 9/17/6
f 6/19/6 10/76/6 12/20/6
f 7/22/6 9/77/6 10/23/6
f 2/25/6 12/78/6 11/26/6
f 12/28/2 13/79/2 14/29/2
f 10/31/1 9/80/1 16/32/1
f 12/34/4 10/81/4 15/35/4
f 11/37/3 14/82/3 16/38/3
f 15/40/6 16/83/6 14/41/6
f 17/43/1 18/84/1 19/44/1
f 19/46/6 22/85/6 21/47/6
f 24/49/2 21/86/2 22/50/2
f 25/52/2 28/87/2 27/53/2
f 27/55/6 28/88/6 29/56/6
f 32/58/1 31/89/1 30/59/1
f 33/61/1 34/90/1 35/62/1
f 38/64/6 37/91/6 36/65/6
f 40/67/2 37/92/2 38/68/2
o Cube.006
v 1.427085 0.000000 -4.032295
v 1.427085 0.000000 -3.432295
v -0.132915 0.000000 -3.432295
v -0.132915 0.000000 -4.032295
v 1.427086 2.200000 -4.032294
v 1.427085 2.200000 -3.432294
v -0.132915 2.200000 -3.432295
v -0.132915 2.200000 -4.032295
v -0.054916 2.127553 -3.432295
v 1.349085 2.127553 -3.432294
v -0.054915 0.072447 -3.432295
v 1.349085 0.072447 -3.432295
v 1.349085 0.072447 -3.932295
v -0.054915 0.072447 -3.932295
v 1.349085 2.127553 -3.932294
v -0.054915 2.127553 -3.932295
v -0.054915 0.472447 -3.932295
v 1.349085 0.472447 -3.932295
v 1.349085 0.472447 -3.432295
v -0.054915 0.472447 -3.432295
v -0.054915 0.527007 -3.432295
v 1.349085 0.527007 -3.432295
v 1.349085 0.527007 -3.932295
v -0.054915 0.527007 -3.932295
v -0.054915 1.084152 -3.932295
v 1.349085 1.084152 -3.932295
v 1.349085 1.084152 -3.432295
v -0.054915 1.084152 -3.432295
v -0.054915 1.029592 -3.432295
v 1.349085 1.029592 -3.432295
v 1.349085 1.029592 -3.932295
v -0.054915 1.029592 -3.932295
v -0.054915 1.572447 -3.932295
v 1.349085 1.572447 -3.932295
v 1.349085 1.572447 -3.432295
v -0.054915 1.572447 -3.432295
v -0.054915 1.627007 -3.432295
v 1.349085 1.627007 -3.432295
v 1.349085 1.627007 -3.932295
v -0.054915 1.627007 -3.932295
vt 0.7862 0.6600
vt 0.2142 0.4400
vt 0.7862 0.4400
vt 0.1530 0.7088
vt 0.7146 0.4928
vt 0.7146 0.7088
vt 0.7598 0.5887
vt 0.0448 0.7837
vt 0.0448 0.5887
vt 0.7210 0.3807
vt 0.0060 0.5757
vt 0.0060 0.3807
vt 0.1160 0.8577
vt 0.9154 0.2908
vt 0.9154 0.8577
vt 0.1041 0.4735
vt 0.7788 0.3770
vt 0.8685 0.4735
vt 0.8614 0.5072
vt 0.1867 0.6037
vt 0.0970 0.5072
vt 0.1963 0.7906
vt 0.8144 0.6956
vt 0.9012 0.7906
vt 0.8860 0.8204
vt 0.2679 0.9154
vt 0.1812 0.8204
vt 0.8603 0.3581
vt 0.1396 0.6148
vt 0.1396 0.3581
vt 0.0000 0.9589
vt 0.2743 0.8613
vt 0.2743 0.9589
vt 0.7036 0.6236
vt 0.0055 0.7935
vt 0.0055 0.6236
vt 0.0704 0.8170
vt 0.8322 0.6316
vt 0.8322 0.8170
vt 0.9694 0.1633
vt 0.0547 0.8364
vt 0.0547 0.1633
vt 0.6920 0.6649
vt 0.9663 0.7626
vt 0.6920 0.7626
vt 0.2622 0.7686
vt 0.0000 0.7346
vt 0.2602 0.7346
vt 0.2229 0.6065
vt 0.8348 0.3886
vt 0.8348 0.6065
vt 0.1993 0.8454
vt 0.9246 0.5871
vt 0.9246 0.8454
vt 0.6920 0.6700
vt 0.4298 0.6360
vt 0.6900 0.6360
vt 0.6920 0.7626
vt 0.9663 0.8603
vt 0.6920 0.8603
vt 0.6920 0.8603
vt 0.9663 0.9580
vt 0.6920 0.9580
vt 0.6920 0.7966
vt 0.4298 0.7626
vt 0.6900 0.7626
vt 0.3646 0.9132
vt 0.7593 0.7727
vt 0.7593 0.9132
vt 0.2142 0.6600
vt 0.1530 0.4928
vt 0.7598 0.7837
vt 0.7210 0.5757
vt 0.1160 0.2908
vt 0.1210 0.3844
vt 0.8446 0.5963
vt 0.2365 0.7031
vt 0.8459 0.9079
vt 0.8603 0.6148
vt 0.0000 0.8613
vt 0.7036 0.7935
vt 0.0704 0.6316
vt 0.9694 0.8364
vt 0.9663 0.6649
vt 0.0020 0.7686
vt 0.2229 0.3886
vt 0.1993 0.5871
vt 0.4319 0.6700
vt 0.9663 0.7626
vt 0.9663 0.8603
vt 0.4319 0.7966
vt 0.3646 0.7727
vn 0.0000 -1.0000 0.0000
vn 0.0000 1.0000 -0.0000
vn 1.0000 -0.0000 0.0000
vn -1.0000 -0.0000 -0.0000
vn 0.0000 0.0000 -1.0000
vn 0.0000 0.0000 1.0000
s off
f 42/93/7 44/94/7 41/95/7
f 48/96/8 46/97/8 45/98/8
f 45/99/9 42/100/9 41/101/9
f 47/102/10 44/103/10 43/104/10
f 41/105/11 48/106/11 45/107/11
f 43/108/12 49/109/12 47/110/12
f 46/111/12 52/112/12 42/113/12
f 47/114/12 50/115/12 46/116/12
f 42/117/12 51/118/12 43/119/12
f 52/120/8 54/121/8 51/122/8
f 49/123/7 55/124/7 50/125/7
f 50/126/10 53/127/10 52/128/10
f 51/129/9 56/130/9 49/131/9
f 55/132/12 54/133/12 53/134/12
f 57/135/7 59/136/7 60/137/7
f 62/138/12 60/139/12 59/140/12
f 64/141/8 62/142/8 63/143/8
f 65/144/8 67/145/8 66/146/8
f 67/147/12 69/148/12 70/149/12
f 72/150/7 70/151/7 69/152/7
f 73/153/7 75/154/7 76/155/7
f 78/156/12 76/157/12 75/158/12
f 80/159/8 78/160/8 79/161/8
f 42/93/7 43/162/7 44/94/7
f 48/96/8 47/163/8 46/97/8
f 45/99/9 46/164/9 42/100/9
f 47/102/10 48/165/10 44/103/10
f 41/105/11 44/166/11 48/106/11
f 43/108/12 51/167/12 49/109/12
f 46/111/12 50/168/12 52/112/12
f 47/114/12 49/169/12 50/115/12
f 42/117/12 52/170/12 51/118/12
f 52/120/8 53/171/8 54/121/8
f 49/123/7 56/172/7 55/124/7
f 50/126/10 55/173/10 53/127/10
f 51/129/9 54/174/9 56/130/9
f 55/132/12 56/175/12 54/133/12
f 57/135/7 58/176/7 59/136/7
f 62/138/12 61/177/12 60/139/12
f 64/141/8 61/178/8 62/142/8
f 65/144/8 68/179/8 67/145/8
f 67/147/12 68/180/12 69/148/12
f 72/150/7 71/181/7 70/151/7
f 73/153/7 74/182/7 75/154/7
f 78/156/12 77/183/12 76/157/12
f 80/159/8 77/184/8 78/160/8
o Circle.001_Circle.002
v -6.011421 -0.000001 -2.670245
v -5.998480 -0.000001 -2.621949
v -6.033836 -0.000001 -2.586594
v -6.082132 -0.000001 -2.599535
v -6.095073 -0.000001 -2.647831
v -6.059718 -0.000001 -2.683186
v -6.011421 0.499999 -2.670245
v -5.998480 0.499999 -2.621949
v -6.033836 0.499999 -2.586594
v -6.082132 0.499999 -2.599535
v -6.095073 0.499999 -2.647831
v -6.059718 0.499999 -2.683186
v -5.559718 0.499999 -2.683186
v -5.595073 0.499999 -2.647831
v -5.582132 0.499999 -2.599535
v -5.533836 0.499999 -2.586594
v -5.498480 0.499999 -2.621949
v -5.511421 0.499999 -2.670245
v -5.559718 -0.000001 -2.683186
v -5.595073 -0.000001 -2.647831
v -5.582132 -0.000001 -2.599535
v -5.533836 -0.000001 -2.586594
v -5.498480 -0.000001 -2.621949
v -5.511421 -0.000001 -2.670245
v -5.511421 -0.000001 -3.170245
v -5.498480 -0.000001 -3.121949
v -5.533836 -0.000001 -3.086594
v -5.582132 -0.000001 -3.099535
v -5.595073 -0.000001 -3.147831
v -5.559718 -0.000001 -3.183186
v -5.511421 0.499999 -3.170245
v -5.498480 0.499999 -3.121949
v -5.533836 0.499999 -3.086594
v -5.582132 0.499999 -3.099535
v -5.595073 0.499999 -3.147831
v -5.559718 0.499999 -3.183186
v -6.059718 0.499999 -3.183186
v -6.095073 0.499999 -3.147831
v -6.082132 0.499999 -3.099535
v -6.033836 0.499999 -3.086594
v -5.998480 0.499999 -3.121949
v -6.011421 0.499999 -3.170245
v -6.059718 -0.000001 -3.183186
v -6.095073 -0.000001 -3.147831
v -6.082132 -0.000001 -3.099535
v -6.033836 -0.000001 -3.086594
v -5.998480 -0.000001 -3.121949
v -6.011421 -0.000001 -3.170245
v -5.443223 0.499999 -3.238443
v -5.296777 0.499999 -2.884890
v -5.443223 0.499999 -2.531336
v -5.796777 0.499999 -2.384890
v -6.150330 0.499999 -2.531337
v -6.296777 0.499999 -2.884890
v -6.150330 0.499999 -3.238443
v -5.796777 0.499999 -3.384890
v -5.407868 0.549999 -3.273799
v -5.246777 0.549999 -2.884890
v -5.407868 0.549999 -2.495981
v -5.796777 0.549999 -2.334890
v -6.185686 0.549999 -2.495981
v -6.346777 0.549999 -2.884890
v -6.185686 0.549999 -3.273799
v -5.796777 0.549999 -3.434890
v -5.296777 0.599999 -2.884890
v -5.443223 0.599999 -3.238443
v -5.443223 0.599999 -2.531336
v -5.796777 0.599999 -2.384890
v -6.150330 0.599999 -2.531337
v -6.296777 0.599999 -2.884890
v -6.150330 0.599999 -3.238443
v -5.796777 0.599999 -3.384890
v -5.796777 0.499999 -2.884890
v -5.796777 0.599999 -2.884890
vt 0.7809 0.2031
vt 0.5611 0.2321
vt 0.5603 0.2031
vt 0.5597 0.0585
vt 0.7794 0.0874
vt 0.5588 0.0874
vt 0.5596 0.1163
vt 0.7793 0.1453
vt 0.5587 0.1453
vt 0.5595 0.1742
vt 0.7801 0.1742
vt 0.7501 0.6853
vt 0.5303 0.7142
vt 0.5295 0.6853
vt 0.7493 0.6563
vt 0.5287 0.6563
vt 0.5296 0.6274
vt 0.7494 0.5985
vt 0.5288 0.5985
vt 0.5297 0.5695
vt 0.7509 0.7142
vt 0.5311 0.7431
vt 0.7509 0.4362
vt 0.5311 0.4651
vt 0.5303 0.4362
vt 0.5297 0.2915
vt 0.7494 0.3204
vt 0.5288 0.3204
vt 0.5296 0.3494
vt 0.7493 0.3783
vt 0.5287 0.3783
vt 0.5295 0.4072
vt 0.7501 0.4072
vt 0.8123 0.6192
vt 0.5941 0.6479
vt 0.5933 0.6192
vt 0.8115 0.5905
vt 0.5925 0.5905
vt 0.5934 0.5618
vt 0.8116 0.5331
vt 0.5926 0.5331
vt 0.5935 0.5044
vt 0.8131 0.6479
vt 0.5948 0.6767
vt 0.3192 0.8792
vt 0.4201 0.9371
vt 0.3187 0.9371
vt 0.1952 0.9371
vt 0.1958 0.8792
vt 0.0357 0.9371
vt 0.0451 0.8792
vt 0.9568 0.8792
vt 0.8338 0.9371
vt 0.8334 0.8792
vt 0.7326 0.8792
vt 0.7325 0.9371
vt 0.6315 0.9371
vt 0.6321 0.8792
vt 0.5215 0.8792
vt 0.5211 0.9371
vt 0.4201 0.8792
vt 0.3191 0.9889
vt 0.1957 0.9889
vt 0.0449 0.9889
vt 0.9643 0.9371
vt 0.8333 0.9889
vt 0.7324 0.9889
vt 0.6311 0.9889
vt 0.5205 0.9889
vt 0.4200 0.9889
vt 0.3240 0.8492
vt 0.1551 0.8492
vt 0.2396 0.6453
vt 0.0357 0.7297
vt 0.0357 0.5609
vt 0.1551 0.4415
vt 0.3240 0.4415
vt 0.4434 0.5609
vt 0.4434 0.7297
vt 0.3240 0.0338
vt 0.4434 0.1532
vt 0.2396 0.2376
vt 0.1551 0.0338
vt 0.0357 0.1532
vt 0.0357 0.3221
vt 0.1551 0.4415
vt 0.3240 0.4415
vt 0.4434 0.3221
vt 0.7817 0.2321
vt 0.7803 0.0585
vt 0.7802 0.1163
vt 0.7502 0.6274
vt 0.7503 0.5695
vt 0.7517 0.7431
vt 0.7517 0.4651
vt 0.7503 0.2915
vt 0.7502 0.3494
vt 0.8124 0.5618
vt 0.8125 0.5044
vt 0.8139 0.6767
vt 0.9566 0.9889
vn 0.9659 0.0000 -0.2588
vn 0.7071 0.0000 0.7071
vn -0.2588 0.0000 0.9659
vn -0.9659 0.0000 0.2588
vn -0.7071 0.0000 -0.7071
vn 0.2588 0.0000 -0.9659
vn 0.6786 -0.6786 -0.2811
vn 0.6786 -0.6786 0.2811
vn 0.2811 -0.6786 0.6786
vn -0.2811 -0.6786 0.6786
vn -0.6786 -0.6786 0.2811
vn -0.6786 -0.6786 -0.2811
vn -0.2811 -0.6786 -0.6786
vn 0.2811 -0.6786 -0.6786
vn 0.6786 0.6786 -0.2811
vn 0.6786 0.6786 0.2811
vn 0.2811 0.6786 0.6786
vn -0.2811 0.6786 0.6786
vn -0.6786 0.6786 0.2811
vn -0.6786 0.6786 -0.2811
vn -0.2811 0.6786 -0.6786
vn 0.2811 0.6786 -0.6786
vn -0.0000 -1.0000 0.0000
vn 0.0000 1.0000 0.0000
s off
f 87/185/13 82/186/13 81/187/13
f 82/188/14 89/189/14 83/190/14
f 89/189/15 84/191/15 83/190/15
f 84/191/16 91/192/16 85/193/16
f 91/192/17 86/194/17 85/193/17
f 81/187/18 92/195/18 87/185/18
f 93/196/18 104/197/18 99/198/18
f 94/199/17 99/198/17 100/200/17
f 101/201/16 94/199/16 100/200/16
f 96/202/15 101/201/15 102/203/15
f 103/204/14 96/202/14 102/203/14
f 98/205/13 103/206/13 104/197/13
f 111/207/13 106/208/13 105/209/13
f 106/210/14 113/211/14 107/212/14
f 113/211/15 108/213/15 107/212/15
f 108/213/16 115/214/16 109/215/16
f 115/214/17 110/216/17 109/215/17
f 116/217/18 105/209/18 110/216/18
f 117/218/18 128/219/18 123/220/18
f 118/221/17 123/220/17 124/222/17
f 125/223/16 118/221/16 124/222/16
f 120/224/15 125/223/15 126/225/15
f 127/226/14 120/224/14 126/225/14
f 122/227/13 127/228/13 128/219/13
f 130/229/19 137/230/19 138/231/19
f 130/229/20 139/232/20 131/233/20
f 131/233/21 140/234/21 132/235/21
f 132/236/22 141/237/22 133/238/22
f 134/239/23 141/237/23 142/240/23
f 134/239/24 143/241/24 135/242/24
f 136/243/25 143/241/25 144/244/25
f 136/243/26 137/230/26 129/245/26
f 137/230/27 145/246/27 138/231/27
f 139/232/28 145/246/28 147/247/28
f 140/234/29 147/247/29 148/248/29
f 140/249/30 149/250/30 141/237/30
f 141/237/31 150/251/31 142/240/31
f 143/241/32 150/251/32 151/252/32
f 144/244/33 151/252/33 152/253/33
f 144/244/34 146/254/34 137/230/34
f 129/255/35 130/256/35 153/257/35
f 130/256/35 131/258/35 153/257/35
f 131/258/35 132/259/35 153/257/35
f 132/259/35 133/260/35 153/257/35
f 133/260/35 134/261/35 153/257/35
f 134/261/35 135/262/35 153/257/35
f 135/262/35 136/263/35 153/257/35
f 136/263/35 129/255/35 153/257/35
f 145/264/36 146/265/36 154/266/36
f 147/267/36 145/264/36 154/266/36
f 148/268/36 147/267/36 154/266/36
f 149/269/36 148/268/36 154/266/36
f 150/270/36 149/269/36 154/266/36
f 151/271/36 150/270/36 154/266/36
f 152/272/36 151/271/36 154/266/36
f 146/265/36 152/272/36 154/266/36
f 87/185/13 88/273/13 82/186/13
f 82/188/14 88/274/14 89/189/14
f 89/189/15 90/275/15 84/191/15
f 84/191/16 90/275/16 91/192/16
f 91/192/17 92/195/17 86/194/17
f 81/187/18 86/194/18 92/195/18
f 93/196/18 98/205/18 104/197/18
f 94/199/17 93/196/17 99/198/17
f 101/201/16 95/276/16 94/199/16
f 96/202/15 95/276/15 101/201/15
f 103/204/14 97/277/14 96/202/14
f 98/205/13 97/278/13 103/206/13
f 111/207/13 112/279/13 106/208/13
f 106/210/14 112/280/14 113/211/14
f 113/211/15 114/281/15 108/213/15
f 108/213/16 114/281/16 115/214/16
f 115/214/17 116/217/17 110/216/17
f 116/217/18 111/207/18 105/209/18
f 117/218/18 122/227/18 128/219/18
f 118/221/17 117/218/17 123/220/17
f 125/223/16 119/282/16 118/221/16
f 120/224/15 119/282/15 125/223/15
f 127/226/14 121/283/14 120/224/14
f 122/227/13 121/284/13 127/228/13
f 130/229/19 129/245/19 137/230/19
f 130/229/20 138/231/20 139/232/20
f 131/233/21 139/232/21 140/234/21
f 132/236/22 140/249/22 141/237/22
f 134/239/23 133/238/23 141/237/23
f 134/239/24 142/240/24 143/241/24
f 136/243/25 135/242/25 143/241/25
f 136/243/26 144/244/26 137/230/26
f 137/230/27 146/254/27 145/246/27
f 139/232/28 138/231/28 145/246/28
f 140/234/29 139/232/29 147/247/29
f 140/249/30 148/285/30 149/250/30
f 141/237/31 149/250/31 150/251/31
f 143/241/32 142/240/32 150/251/32
f 144/244/33 143/241/33 151/252/33
f 144/244/34 152/253/34 146/254/34
